<svg width="225" height="225" version="1.1" xmlns="http://www.w3.org/2000/svg" desc="Created with imagetracer.js version 1.2.6" ><path fill="rgb(0,0,0)" stroke="rgb(0,0,0)" stroke-width="1" opacity="0" d="M 0 0 L 225 0 L 225 225 L 0 225 L 0 0 Z M 102 39 Q 81 43 68 54 Q 55 64 47 79 L 42 91 L 39 106 L 39 119 L 40 120 L 41 131 Q 46 148 57 161 Q 65 170 76 176 L 92 183 L 107 186 Q 140 187 158 172 Q 172 161 179 143 L 182 133 L 183 119 L 184 118 L 183 101 L 182 100 L 182 98 L 114 98 L 112 100 L 112 127 Q 113 129 115 127 Q 120 126 122 128 L 127 127 L 152 127 L 151 134 L 144 145 L 130 154 L 122 156 L 106 156 Q 95 154 89 149 Q 75 139 70 121 Q 68 96 79 85 Q 89 72 108 68 L 124 69 Q 135 72 142 79 L 162 58 Q 151 46 134 41 L 125 39 L 102 39 Z " /><path fill="rgb(231,66,52)" stroke="rgb(231,66,52)" stroke-width="1" opacity="0.996078431372549" d="M 108.5 39 L 117.5 39 L 134.5 42 Q 150.3 47.2 161 57.5 L 141.5 78 L 126.5 69 L 116.5 67 L 109.5 67 L 92.5 72 L 78 84.5 L 72 94.5 L 72 97 L 68.5 96 L 48 79.5 Q 55.2 63.7 68.5 54 L 86.5 44 L 95.5 41 L 107.5 40 L 108.5 39 Z " /><path fill="rgb(192,69,59)" stroke="rgb(192,69,59)" stroke-width="1" opacity="0.5254901960784314" d="M 101.5 39 L 108 39.5 L 101.5 40 L 101.5 39 Z " /><path fill="rgb(192,69,59)" stroke="rgb(192,69,59)" stroke-width="1" opacity="0.5254901960784314" d="M 118.5 39 L 125 39.5 L 118.5 40 L 118.5 39 Z " /><path fill="rgb(192,69,59)" stroke="rgb(192,69,59)" stroke-width="1" opacity="0.5254901960784314" d="M 96.5 40 L 100 40.5 L 96.5 41 L 96.5 40 Z " /><path fill="rgb(192,69,59)" stroke="rgb(192,69,59)" stroke-width="1" opacity="0.5254901960784314" d="M 126.5 40 L 130 40.5 L 126.5 41 L 126.5 40 Z " /><path fill="rgb(192,69,59)" stroke="rgb(192,69,59)" stroke-width="1" opacity="0.5254901960784314" d="M 92.5 41 L 95 41.5 L 82.5 46 L 82.5 45 L 92.5 41 Z " /><path fill="rgb(192,69,59)" stroke="rgb(192,69,59)" stroke-width="1" opacity="0.5254901960784314" d="M 131.5 41 L 134 41.5 L 131.5 42 L 131.5 41 Z " /><path fill="rgb(192,69,59)" stroke="rgb(192,69,59)" stroke-width="1" opacity="0.5254901960784314" d="M 135.5 42 L 144 45.5 L 142.5 46 L 135.5 43 L 135.5 42 Z " /><path fill="rgb(192,69,59)" stroke="rgb(192,69,59)" stroke-width="1" opacity="0.5254901960784314" d="M 145.5 46 L 151 49.5 L 149.5 49 Q 145.5 48.5 145.5 46 Z " /><path fill="rgb(192,69,59)" stroke="rgb(192,69,59)" stroke-width="1" opacity="0.5254901960784314" d="M 76.5 48 L 75.5 50 L 69.5 54 L 71.5 51 L 76.5 48 Z " /><path fill="rgb(192,69,59)" stroke="rgb(192,69,59)" stroke-width="1" opacity="0.5254901960784314" d="M 152.5 50 L 153.5 52 L 152.5 50 Z " /><path fill="rgb(192,69,59)" stroke="rgb(192,69,59)" stroke-width="1" opacity="0.5254901960784314" d="M 155.5 52 L 158.5 56 L 155.5 52 Z " /><path fill="rgb(192,69,59)" stroke="rgb(192,69,59)" stroke-width="1" opacity="0.5254901960784314" d="M 67.5 54 L 55.5 67 L 67.5 54 Z " /><path fill="rgb(192,69,59)" stroke="rgb(192,69,59)" stroke-width="1" opacity="0.5254901960784314" d="M 160.5 56 L 162 58.5 L 141 78.5 L 161 57.5 L 160.5 56 Z " /><path fill="rgb(192,69,59)" stroke="rgb(192,69,59)" stroke-width="1" opacity="0.5254901960784314" d="M 109.5 67 L 117 67.5 L 109.5 68 L 109.5 67 Z " /><path fill="rgb(192,69,59)" stroke="rgb(192,69,59)" stroke-width="1" opacity="0.5254901960784314" d="M 54.5 68 L 52.5 71 L 54.5 68 Z " /><path fill="rgb(192,69,59)" stroke="rgb(192,69,59)" stroke-width="1" opacity="0.5254901960784314" d="M 103.5 68 L 107 68.5 L 103.5 69 L 103.5 68 Z " /><path fill="rgb(192,69,59)" stroke="rgb(192,69,59)" stroke-width="1" opacity="0.5254901960784314" d="M 119.5 68 L 123 68.5 L 119.5 69 L 119.5 68 Z " /><path fill="rgb(192,69,59)" stroke="rgb(192,69,59)" stroke-width="1" opacity="0.5254901960784314" d="M 124.5 69 L 127 69.5 L 124.5 70 L 124.5 69 Z " /><path fill="rgb(192,69,59)" stroke="rgb(192,69,59)" stroke-width="1" opacity="0.5254901960784314" d="M 51.5 72 L 51 73.5 L 49.5 76 L 50 74.5 L 51.5 72 Z " /><path fill="rgb(192,69,59)" stroke="rgb(192,69,59)" stroke-width="1" opacity="0.5254901960784314" d="M 92.5 72 L 94 72.5 Q 84.8 76.8 79 84.5 L 71.5 98 L 72 96.5 Q 76.3 83.3 86.5 76 L 92.5 72 Z " /><path fill="rgb(192,69,59)" stroke="rgb(192,69,59)" stroke-width="1" opacity="0.5254901960784314" d="M 134.5 73 L 140 77.5 L 136.5 75 L 134.5 73 Z " /><path fill="rgb(192,69,59)" stroke="rgb(192,69,59)" stroke-width="1" opacity="0.5254901960784314" d="M 47.5 79 L 46.5 81 L 47.5 79 Z " /><path fill="rgb(228,188,38)" stroke="rgb(228,188,38)" stroke-width="1" opacity="0.7725490196078432" d="M 45.5 83 L 46 84.5 L 44.5 87 L 44 85.5 L 45.5 83 Z " /><path fill="rgb(228,188,38)" stroke="rgb(228,188,38)" stroke-width="1" opacity="0.7725490196078432" d="M 42.5 91 L 43 93.5 L 42 93.5 L 42.5 91 Z " /><path fill="rgb(228,188,38)" stroke="rgb(228,188,38)" stroke-width="1" opacity="0.7725490196078432" d="M 41.5 95 L 42 97.5 L 40.5 105 L 40 98.5 L 41.5 95 Z " /><path fill="rgb(228,188,38)" stroke="rgb(228,188,38)" stroke-width="1" opacity="0.7725490196078432" d="M 70.5 103 L 70 104.5 L 69.5 120 L 69 104.5 L 70.5 103 Z " /><path fill="rgb(228,188,38)" stroke="rgb(228,188,38)" stroke-width="1" opacity="0.7725490196078432" d="M 39.5 106 L 40 117.5 L 39 117.5 L 39.5 106 Z " /><path fill="rgb(228,188,38)" stroke="rgb(228,188,38)" stroke-width="1" opacity="0.7725490196078432" d="M 40.5 120 L 42 129.5 L 41 129.5 L 40.5 120 Z " /><path fill="rgb(228,188,38)" stroke="rgb(228,188,38)" stroke-width="1" opacity="0.7725490196078432" d="M 42.5 131 L 44 135.5 L 43 135.5 L 42.5 131 Z " /><path fill="rgb(228,188,38)" stroke="rgb(228,188,38)" stroke-width="1" opacity="0.7725490196078432" d="M 45.5 140 L 48 144.5 L 46 143.5 L 45.5 140 Z " /><path fill="rgb(251,186,7)" stroke="rgb(251,186,7)" stroke-width="1" opacity="1" d="M 47 80 L 51.5 82 L 71 97.5 Q 67.3 105.8 69 119.5 L 71 126.5 L 49.5 144 L 47 144 Q 39.1 129.6 40 105.5 L 43 90.5 L 47 80 Z " /><path fill="rgb(97,127,134)" stroke="rgb(97,127,134)" stroke-width="1" opacity="0.20784313725490197" d="M 113.5 98 L 182 98.5 L 113 99 L 113 126.5 L 114 127.5 L 112 126.5 L 112 99.5 L 113.5 98 Z " /><path fill="rgb(97,127,134)" stroke="rgb(97,127,134)" stroke-width="1" opacity="0.20784313725490197" d="M 182.5 100 L 183 104.5 L 182 104.5 L 182.5 100 Z " /><path fill="rgb(97,127,134)" stroke="rgb(97,127,134)" stroke-width="1" opacity="0.20784313725490197" d="M 183.5 110 L 184 117.5 L 183 117.5 L 183.5 110 Z " /><path fill="rgb(97,127,134)" stroke="rgb(97,127,134)" stroke-width="1" opacity="0.20784313725490197" d="M 182.5 123 L 183 126.5 L 182 126.5 L 182.5 123 Z " /><path fill="rgb(97,127,134)" stroke="rgb(97,127,134)" stroke-width="1" opacity="0.20784313725490197" d="M 121.5 127 L 126 127.5 L 121.5 128 L 121.5 127 Z " /><path fill="rgb(97,127,134)" stroke="rgb(97,127,134)" stroke-width="1" opacity="0.20784313725490197" d="M 181.5 130 L 182 132.5 L 181 132.5 L 181.5 130 Z " /><path fill="rgb(97,127,134)" stroke="rgb(97,127,134)" stroke-width="1" opacity="0.20784313725490197" d="M 74.5 132 L 76 134.5 L 74 133.5 L 74.5 132 Z " /><path fill="rgb(97,127,134)" stroke="rgb(97,127,134)" stroke-width="1" opacity="0.20784313725490197" d="M 76.5 136 L 77.5 138 L 76.5 136 Z " /><path fill="rgb(97,127,134)" stroke="rgb(97,127,134)" stroke-width="1" opacity="0.20784313725490197" d="M 148.5 138 L 147.5 140 L 148.5 138 Z " /><path fill="rgb(97,127,134)" stroke="rgb(97,127,134)" stroke-width="1" opacity="0.20784313725490197" d="M 78.5 139 L 86.5 148 L 78.5 139 Z " /><path fill="rgb(97,127,134)" stroke="rgb(97,127,134)" stroke-width="1" opacity="0.20784313725490197" d="M 146.5 141 L 144.5 144 L 146.5 141 Z " /><path fill="rgb(97,127,134)" stroke="rgb(97,127,134)" stroke-width="1" opacity="0.20784313725490197" d="M 142.5 145 L 138.5 150 L 142.5 145 Z " /><path fill="rgb(97,127,134)" stroke="rgb(97,127,134)" stroke-width="1" opacity="0.20784313725490197" d="M 91.5 150 L 92.5 152 L 91.5 150 Z " /><path fill="rgb(97,127,134)" stroke="rgb(97,127,134)" stroke-width="1" opacity="0.20784313725490197" d="M 51.5 152 L 52.5 154 L 51.5 152 Z " /><path fill="rgb(97,127,134)" stroke="rgb(97,127,134)" stroke-width="1" opacity="0.20784313725490197" d="M 172.5 154 L 171.5 156 L 172.5 154 Z " /><path fill="rgb(97,127,134)" stroke="rgb(97,127,134)" stroke-width="1" opacity="0.20784313725490197" d="M 53.5 155 L 55.5 158 L 53.5 155 Z " /><path fill="rgb(97,127,134)" stroke="rgb(97,127,134)" stroke-width="1" opacity="0.20784313725490197" d="M 102.5 155 L 105 155.5 L 102.5 156 L 102.5 155 Z " /><path fill="rgb(97,127,134)" stroke="rgb(97,127,134)" stroke-width="1" opacity="0.20784313725490197" d="M 122.5 155 L 125 155.5 L 122.5 156 L 122.5 155 Z " /><path fill="rgb(97,127,134)" stroke="rgb(97,127,134)" stroke-width="1" opacity="0.20784313725490197" d="M 108.5 156 L 119 156.5 L 108.5 157 L 108.5 156 Z " /><path fill="rgb(97,127,134)" stroke="rgb(97,127,134)" stroke-width="1" opacity="0.20784313725490197" d="M 170.5 157 L 169.5 159 L 170.5 157 Z " /><path fill="rgb(97,127,134)" stroke="rgb(97,127,134)" stroke-width="1" opacity="0.20784313725490197" d="M 57.5 160 L 65.5 169 L 57.5 160 Z " /><path fill="rgb(97,127,134)" stroke="rgb(97,127,134)" stroke-width="1" opacity="0.20784313725490197" d="M 168.5 160 L 157.5 172 L 168.5 160 Z " /><path fill="rgb(97,127,134)" stroke="rgb(97,127,134)" stroke-width="1" opacity="0.20784313725490197" d="M 67.5 169 L 69.5 172 L 67.5 169 Z " /><path fill="rgb(97,127,134)" stroke="rgb(97,127,134)" stroke-width="1" opacity="0.20784313725490197" d="M 71.5 172 L 72.5 174 L 71.5 172 Z " /><path fill="rgb(97,127,134)" stroke="rgb(97,127,134)" stroke-width="1" opacity="0.20784313725490197" d="M 155.5 172 L 154.5 174 L 155.5 172 Z " /><path fill="rgb(97,127,134)" stroke="rgb(97,127,134)" stroke-width="1" opacity="0.20784313725490197" d="M 74.5 174 L 75.5 176 L 74.5 174 Z " /><path fill="rgb(97,127,134)" stroke="rgb(97,127,134)" stroke-width="1" opacity="0.20784313725490197" d="M 152.5 174 L 151.5 176 L 152.5 174 Z " /><path fill="rgb(97,127,134)" stroke="rgb(97,127,134)" stroke-width="1" opacity="0.20784313725490197" d="M 99.5 184 L 102 184.5 L 99.5 185 L 99.5 184 Z " /><path fill="rgb(97,127,134)" stroke="rgb(97,127,134)" stroke-width="1" opacity="0.20784313725490197" d="M 124.5 184 L 128 184.5 L 124.5 185 L 124.5 184 Z " /><path fill="rgb(97,127,134)" stroke="rgb(97,127,134)" stroke-width="1" opacity="0.20784313725490197" d="M 106.5 185 L 120 185.5 L 106.5 186 L 106.5 185 Z " /><path fill="rgb(52,166,82)" stroke="rgb(52,166,82)" stroke-width="1" opacity="0.9921568627450981" d="M 70.5 127 Q 72.8 126.3 72 128.5 Q 76.8 140.8 86.5 148 L 102.5 156 L 118.5 157 L 130.5 154 L 140 150 Q 138.9 152.7 141.5 152 L 161 167.5 Q 150.6 178.6 133.5 183 L 123.5 185 L 102.5 185 Q 71.8 179.2 56 158.5 L 49 148.5 L 48 144 L 70.5 127 Z " /><path fill="rgb(66,132,242)" stroke="rgb(66,132,242)" stroke-width="1" opacity="0.996078431372549" d="M 113 99 L 181.5 99 Q 182.6 99.1 182 104.5 L 183 105.5 L 183 122.5 L 178 143.5 Q 172.6 158.1 161.5 167 L 140 152 L 139 149.5 Q 150.2 141.9 153 127 L 113 127 L 113 99 Z " /></svg>